<mxfile host="app.diagrams.net" modified="2021-03-20T10:50:22.250Z" agent="5.0 (Windows NT 10.0; Win64; x64) AppleWebKit/537.36 (KHTML, like Gecko) Chrome/89.0.4389.90 Safari/537.36" etag="dN3Il-UXq3gawJfIJRWO" version="14.4.9" type="github">
  <diagram id="Z4YuVQ_pWF5XnM8GfKSv" name="Page-1">
    <mxGraphModel dx="2071" dy="645" grid="1" gridSize="10" guides="1" tooltips="1" connect="1" arrows="1" fold="1" page="1" pageScale="1" pageWidth="850" pageHeight="1100" math="0" shadow="0">
      <root>
        <mxCell id="0" />
        <mxCell id="1" parent="0" />
        <mxCell id="uF4FE0gzj0Pe7FQrNN7v-1" value="Telepes Robotot épít" style="shape=umlFrame;whiteSpace=wrap;html=1;width=120;height=40;" vertex="1" parent="1">
          <mxGeometry x="-70" y="30" width="1160" height="650" as="geometry" />
        </mxCell>
        <mxCell id="uF4FE0gzj0Pe7FQrNN7v-2" value="opt" style="shape=umlFrame;whiteSpace=wrap;html=1;" vertex="1" parent="1">
          <mxGeometry x="30" y="340" width="1040" height="290" as="geometry" />
        </mxCell>
        <mxCell id="uF4FE0gzj0Pe7FQrNN7v-3" value="3 : EpithetoE()" style="html=1;verticalAlign=bottom;endArrow=block;entryX=0;entryY=0;" edge="1" parent="1" source="uF4FE0gzj0Pe7FQrNN7v-7" target="uF4FE0gzj0Pe7FQrNN7v-9">
          <mxGeometry relative="1" as="geometry">
            <mxPoint x="170" y="260" as="sourcePoint" />
          </mxGeometry>
        </mxCell>
        <mxCell id="uF4FE0gzj0Pe7FQrNN7v-5" value="t: Telepes" style="shape=umlLifeline;perimeter=lifelinePerimeter;container=1;collapsible=0;recursiveResize=0;rounded=0;shadow=0;strokeWidth=1;" vertex="1" parent="1">
          <mxGeometry x="120" y="80" width="100" height="600" as="geometry" />
        </mxCell>
        <mxCell id="uF4FE0gzj0Pe7FQrNN7v-6" value="1 : RobotEpit(e: RobotEpito)" style="verticalAlign=bottom;startArrow=none;endArrow=block;startSize=8;shadow=0;strokeWidth=1;startFill=0;" edge="1" parent="uF4FE0gzj0Pe7FQrNN7v-5" source="uF4FE0gzj0Pe7FQrNN7v-32">
          <mxGeometry relative="1" as="geometry">
            <mxPoint x="-50" y="80" as="sourcePoint" />
            <mxPoint x="45" y="80" as="targetPoint" />
          </mxGeometry>
        </mxCell>
        <mxCell id="uF4FE0gzj0Pe7FQrNN7v-7" value="" style="html=1;points=[];perimeter=orthogonalPerimeter;" vertex="1" parent="uF4FE0gzj0Pe7FQrNN7v-5">
          <mxGeometry x="45" y="80" width="10" height="500" as="geometry" />
        </mxCell>
        <mxCell id="uF4FE0gzj0Pe7FQrNN7v-8" value="e: RobotEpito" style="shape=umlLifeline;perimeter=lifelinePerimeter;container=1;collapsible=0;recursiveResize=0;rounded=0;shadow=0;strokeWidth=1;" vertex="1" parent="1">
          <mxGeometry x="340" y="80" width="100" height="600" as="geometry" />
        </mxCell>
        <mxCell id="uF4FE0gzj0Pe7FQrNN7v-9" value="" style="html=1;points=[];perimeter=orthogonalPerimeter;" vertex="1" parent="uF4FE0gzj0Pe7FQrNN7v-8">
          <mxGeometry x="45" y="160" width="10" height="30" as="geometry" />
        </mxCell>
        <mxCell id="uF4FE0gzj0Pe7FQrNN7v-10" value="" style="points=[];perimeter=orthogonalPerimeter;rounded=0;shadow=0;strokeWidth=1;" vertex="1" parent="uF4FE0gzj0Pe7FQrNN7v-8">
          <mxGeometry x="45" y="100" width="10" height="30" as="geometry" />
        </mxCell>
        <mxCell id="uF4FE0gzj0Pe7FQrNN7v-11" value="" style="html=1;points=[];perimeter=orthogonalPerimeter;" vertex="1" parent="uF4FE0gzj0Pe7FQrNN7v-8">
          <mxGeometry x="45" y="340" width="10" height="200" as="geometry" />
        </mxCell>
        <mxCell id="uF4FE0gzj0Pe7FQrNN7v-12" value="4 : Reset()" style="html=1;verticalAlign=bottom;endArrow=block;entryX=1;entryY=0.733;entryDx=0;entryDy=0;entryPerimeter=0;rounded=0;exitX=1.26;exitY=0.153;exitDx=0;exitDy=0;exitPerimeter=0;" edge="1" parent="uF4FE0gzj0Pe7FQrNN7v-8" target="uF4FE0gzj0Pe7FQrNN7v-9" source="uF4FE0gzj0Pe7FQrNN7v-9">
          <mxGeometry x="-0.1463" y="10" relative="1" as="geometry">
            <mxPoint x="55" y="220" as="sourcePoint" />
            <mxPoint x="150" y="220" as="targetPoint" />
            <Array as="points">
              <mxPoint x="90" y="165" />
              <mxPoint x="90" y="182" />
            </Array>
            <mxPoint as="offset" />
          </mxGeometry>
        </mxCell>
        <mxCell id="uF4FE0gzj0Pe7FQrNN7v-13" value="kell" style="verticalAlign=bottom;endArrow=open;dashed=1;endSize=8;exitX=0;exitY=0.95;shadow=0;strokeWidth=1;" edge="1" parent="1" source="uF4FE0gzj0Pe7FQrNN7v-10" target="uF4FE0gzj0Pe7FQrNN7v-7">
          <mxGeometry relative="1" as="geometry">
            <mxPoint x="275" y="236" as="targetPoint" />
          </mxGeometry>
        </mxCell>
        <mxCell id="uF4FE0gzj0Pe7FQrNN7v-14" value="2 : KellE(v)" style="verticalAlign=bottom;endArrow=block;entryX=0;entryY=0;shadow=0;strokeWidth=1;" edge="1" parent="1" source="uF4FE0gzj0Pe7FQrNN7v-7" target="uF4FE0gzj0Pe7FQrNN7v-10">
          <mxGeometry relative="1" as="geometry">
            <mxPoint x="275" y="160" as="sourcePoint" />
            <Array as="points" />
          </mxGeometry>
        </mxCell>
        <mxCell id="uF4FE0gzj0Pe7FQrNN7v-16" value="[epitheto]" style="text;html=1;strokeColor=none;fillColor=none;align=center;verticalAlign=middle;whiteSpace=wrap;rounded=0;" vertex="1" parent="1">
          <mxGeometry x="60" y="380" width="40" height="20" as="geometry" />
        </mxCell>
        <mxCell id="uF4FE0gzj0Pe7FQrNN7v-17" value="epitheto" style="html=1;verticalAlign=bottom;endArrow=open;dashed=1;endSize=8;exitX=0;exitY=0.95;" edge="1" parent="1" source="uF4FE0gzj0Pe7FQrNN7v-9" target="uF4FE0gzj0Pe7FQrNN7v-7">
          <mxGeometry relative="1" as="geometry">
            <mxPoint x="170" y="279" as="targetPoint" />
          </mxGeometry>
        </mxCell>
        <mxCell id="uF4FE0gzj0Pe7FQrNN7v-18" value="a: Aszteroida" style="shape=umlLifeline;perimeter=lifelinePerimeter;whiteSpace=wrap;html=1;container=1;collapsible=0;recursiveResize=0;outlineConnect=0;" vertex="1" parent="1">
          <mxGeometry x="780" y="80" width="100" height="600" as="geometry" />
        </mxCell>
        <mxCell id="uF4FE0gzj0Pe7FQrNN7v-19" value="" style="html=1;points=[];perimeter=orthogonalPerimeter;" vertex="1" parent="uF4FE0gzj0Pe7FQrNN7v-18">
          <mxGeometry x="45" y="370" width="10" height="80" as="geometry" />
        </mxCell>
        <mxCell id="uF4FE0gzj0Pe7FQrNN7v-20" value="7 : HajoErkezik(r)" style="html=1;verticalAlign=bottom;endArrow=block;entryX=0;entryY=0;" edge="1" parent="1" source="uF4FE0gzj0Pe7FQrNN7v-29" target="uF4FE0gzj0Pe7FQrNN7v-19">
          <mxGeometry relative="1" as="geometry">
            <mxPoint x="775" y="600" as="sourcePoint" />
          </mxGeometry>
        </mxCell>
        <mxCell id="uF4FE0gzj0Pe7FQrNN7v-21" value="" style="html=1;verticalAlign=bottom;endArrow=open;dashed=1;endSize=8;exitX=0;exitY=0.95;" edge="1" parent="1" source="uF4FE0gzj0Pe7FQrNN7v-19" target="uF4FE0gzj0Pe7FQrNN7v-29">
          <mxGeometry relative="1" as="geometry">
            <mxPoint x="775" y="676" as="targetPoint" />
          </mxGeometry>
        </mxCell>
        <mxCell id="uF4FE0gzj0Pe7FQrNN7v-22" value="8 : MezoBeallit(a)" style="html=1;verticalAlign=bottom;endArrow=block;" edge="1" parent="1" source="uF4FE0gzj0Pe7FQrNN7v-19" target="uF4FE0gzj0Pe7FQrNN7v-30">
          <mxGeometry relative="1" as="geometry">
            <mxPoint x="754.9" y="610" as="sourcePoint" />
            <mxPoint x="400" y="700" as="targetPoint" />
            <Array as="points">
              <mxPoint x="720" y="480" />
            </Array>
          </mxGeometry>
        </mxCell>
        <mxCell id="uF4FE0gzj0Pe7FQrNN7v-23" value="" style="html=1;verticalAlign=bottom;endArrow=open;dashed=1;endSize=8;exitX=1.02;exitY=0.9;exitDx=0;exitDy=0;exitPerimeter=0;" edge="1" parent="1" source="uF4FE0gzj0Pe7FQrNN7v-30" target="uF4FE0gzj0Pe7FQrNN7v-19">
          <mxGeometry relative="1" as="geometry">
            <mxPoint x="754.9" y="686" as="targetPoint" />
            <mxPoint x="400" y="719" as="sourcePoint" />
          </mxGeometry>
        </mxCell>
        <mxCell id="uF4FE0gzj0Pe7FQrNN7v-24" value="" style="html=1;verticalAlign=bottom;endArrow=open;dashed=1;endSize=8;exitX=0.1;exitY=0.998;exitDx=0;exitDy=0;exitPerimeter=0;" edge="1" parent="1" source="uF4FE0gzj0Pe7FQrNN7v-7" target="uF4FE0gzj0Pe7FQrNN7v-32">
          <mxGeometry relative="1" as="geometry">
            <mxPoint x="160" y="800" as="sourcePoint" />
            <mxPoint x="10" y="659" as="targetPoint" />
            <Array as="points" />
          </mxGeometry>
        </mxCell>
        <mxCell id="uF4FE0gzj0Pe7FQrNN7v-25" value="5 : Letrejon(a)" style="html=1;verticalAlign=bottom;endArrow=block;entryX=0;entryY=0;" edge="1" parent="1" source="uF4FE0gzj0Pe7FQrNN7v-7" target="uF4FE0gzj0Pe7FQrNN7v-11">
          <mxGeometry relative="1" as="geometry">
            <mxPoint x="315" y="710" as="sourcePoint" />
            <Array as="points">
              <mxPoint x="250" y="420" />
            </Array>
          </mxGeometry>
        </mxCell>
        <mxCell id="uF4FE0gzj0Pe7FQrNN7v-26" value="" style="html=1;verticalAlign=bottom;endArrow=open;dashed=1;endSize=8;exitX=-0.06;exitY=0.99;exitDx=0;exitDy=0;exitPerimeter=0;" edge="1" parent="1" source="uF4FE0gzj0Pe7FQrNN7v-11" target="uF4FE0gzj0Pe7FQrNN7v-7">
          <mxGeometry relative="1" as="geometry">
            <mxPoint x="315" y="786" as="targetPoint" />
            <Array as="points" />
          </mxGeometry>
        </mxCell>
        <mxCell id="uF4FE0gzj0Pe7FQrNN7v-27" value="null" style="edgeLabel;html=1;align=center;verticalAlign=middle;resizable=0;points=[];" vertex="1" connectable="0" parent="uF4FE0gzj0Pe7FQrNN7v-26">
          <mxGeometry x="0.2168" y="1" relative="1" as="geometry">
            <mxPoint x="22.6" y="-9" as="offset" />
          </mxGeometry>
        </mxCell>
        <mxCell id="uF4FE0gzj0Pe7FQrNN7v-28" value="r :Robot" style="shape=umlLifeline;perimeter=lifelinePerimeter;whiteSpace=wrap;html=1;container=1;collapsible=0;recursiveResize=0;outlineConnect=0;" vertex="1" parent="1">
          <mxGeometry x="550" y="80" width="100" height="600" as="geometry" />
        </mxCell>
        <mxCell id="uF4FE0gzj0Pe7FQrNN7v-29" value="" style="html=1;points=[];perimeter=orthogonalPerimeter;" vertex="1" parent="uF4FE0gzj0Pe7FQrNN7v-28">
          <mxGeometry x="45" y="350" width="10" height="170" as="geometry" />
        </mxCell>
        <mxCell id="uF4FE0gzj0Pe7FQrNN7v-30" value="" style="html=1;points=[];perimeter=orthogonalPerimeter;" vertex="1" parent="uF4FE0gzj0Pe7FQrNN7v-28">
          <mxGeometry x="50" y="400" width="10" height="30" as="geometry" />
        </mxCell>
        <mxCell id="uF4FE0gzj0Pe7FQrNN7v-31" value="6. &amp;lt;&amp;lt;create&amp;gt;&amp;gt; Robot(a)" style="html=1;verticalAlign=bottom;endArrow=block;strokeColor=#000000;" edge="1" parent="1" source="uF4FE0gzj0Pe7FQrNN7v-11" target="uF4FE0gzj0Pe7FQrNN7v-29">
          <mxGeometry width="80" relative="1" as="geometry">
            <mxPoint x="550" y="490" as="sourcePoint" />
            <mxPoint x="630" y="490" as="targetPoint" />
            <Array as="points">
              <mxPoint x="540" y="430" />
            </Array>
          </mxGeometry>
        </mxCell>
        <mxCell id="uF4FE0gzj0Pe7FQrNN7v-32" value="Player" style="shape=umlLifeline;participant=umlActor;perimeter=lifelinePerimeter;whiteSpace=wrap;html=1;container=1;collapsible=0;recursiveResize=0;verticalAlign=top;spacingTop=36;outlineConnect=0;" vertex="1" parent="1">
          <mxGeometry x="-10" y="80" width="20" height="590" as="geometry" />
        </mxCell>
        <mxCell id="uF4FE0gzj0Pe7FQrNN7v-33" value="" style="html=1;verticalAlign=bottom;endArrow=open;dashed=1;endSize=8;entryX=1.02;entryY=0.887;entryDx=0;entryDy=0;entryPerimeter=0;" edge="1" parent="1" source="uF4FE0gzj0Pe7FQrNN7v-29" target="uF4FE0gzj0Pe7FQrNN7v-11">
          <mxGeometry relative="1" as="geometry">
            <mxPoint x="540" y="560" as="sourcePoint" />
            <mxPoint x="460" y="560" as="targetPoint" />
          </mxGeometry>
        </mxCell>
        <mxCell id="uF4FE0gzj0Pe7FQrNN7v-34" value="v: Vas" style="shape=umlLifeline;perimeter=lifelinePerimeter;whiteSpace=wrap;html=1;container=1;collapsible=0;recursiveResize=0;outlineConnect=0;" vertex="1" parent="1">
          <mxGeometry x="930" y="80" width="100" height="640" as="geometry" />
        </mxCell>
        <mxCell id="uF4FE0gzj0Pe7FQrNN7v-37" value="KELL A MEGSEMMISUL A VASHOZ??" style="ellipse;shape=cloud;whiteSpace=wrap;html=1;fillColor=#f8cecc;strokeColor=#b85450;" vertex="1" parent="1">
          <mxGeometry x="1085" y="295" width="190" height="90" as="geometry" />
        </mxCell>
      </root>
    </mxGraphModel>
  </diagram>
</mxfile>
